<?xml version="1.0" standalone="no"?>
<!DOCTYPE svg PUBLIC "-//W3C//DTD SVG 20010904//EN"
 "http://www.w3.org/TR/2001/REC-SVG-20010904/DTD/svg10.dtd">
<svg version="1.0" xmlns="http://www.w3.org/2000/svg"
 width="200.000000pt" height="200.000000pt" viewBox="0 0 200.000000 200.000000"
 preserveAspectRatio="xMidYMid meet">
<metadata>
Created by potrace 1.11, written by Peter Selinger 2001-2013
</metadata>
<g transform="translate(0.000000,200.000000) scale(0.100000,-0.100000)"
fill="#000000" stroke="none">
<path d="M876 1725 c-52 -18 -120 -87 -146 -148 -22 -50 -25 -138 -6 -178 5
-11 -8 -34 -42 -75 -60 -73 -155 -228 -180 -297 -31 -83 -35 -129 -18 -197 19
-72 54 -125 109 -165 l39 -28 -36 -12 c-67 -23 -96 -65 -96 -139 0 -36 6 -52
30 -79 35 -40 39 -84 15 -163 -8 -27 -15 -52 -15 -56 0 -5 187 -8 415 -8 388
0 415 1 415 18 1 16 1 16 11 0 8 -15 24 -18 89 -18 44 0 80 2 80 4 0 2 -13 30
-30 62 -16 32 -34 80 -41 107 -10 44 -10 50 10 71 31 33 43 82 30 129 -13 48
-70 113 -113 127 l-34 11 29 53 c56 104 49 236 -21 381 -64 133 -182 271 -280
328 l-36 20 3 81 c5 98 -14 136 -80 166 -50 23 -51 23 -101 5z m36 -471 c7 -6
-20 -93 -35 -111 -5 -7 -23 -13 -39 -13 -23 0 -28 4 -24 18 2 9 10 36 17 59
11 40 19 46 65 52 6 0 13 -2 16 -5z m-104 -74 c-15 -45 -25 -60 -39 -60 -23 0
-23 5 -4 61 15 44 41 73 56 64 4 -3 -2 -32 -13 -65z m82 -307 c0 -35 -3 -44
-10 -33 -13 20 -13 80 0 80 6 0 10 -21 10 -47z"/>
</g>
</svg>
